<svg width="32" height="32" viewBox="0 0 32 32" fill="none" xmlns="http://www.w3.org/2000/svg">
<path d="M16.675 4.61283L16.6775 4.61508L26.675 13.7003C26.6754 13.7006 26.6757 13.7009 26.676 13.7013C26.7779 13.7947 26.8593 13.9083 26.9151 14.0349C26.971 14.1618 26.9999 14.2989 27 14.4375C27 14.4376 27 14.4377 27 14.4378V25.9988C26.9994 26.18 26.9501 26.3576 26.8574 26.5133C26.7644 26.6693 26.6312 26.7974 26.4718 26.8843L26.4717 26.8843C26.3297 26.9617 26.1705 27.0015 26.0088 27V27H26H20V21C20 20.4696 19.7893 19.9609 19.4142 19.5858C19.0392 19.2107 18.5305 19 18 19H14C13.4696 19 12.9609 19.2107 12.5858 19.5858C12.2107 19.9609 12 20.4696 12 21V27L6.00002 27L5.99624 27C5.85528 27.0006 5.71583 26.9709 5.58728 26.913C5.45988 26.8557 5.34611 26.772 5.25347 26.6675C5.086 26.4726 4.99575 26.2231 4.99989 25.9661L5.00002 25.9581V25.95V14.4378C5.00002 14.4377 5.00002 14.4376 5.00002 14.4375C5.00011 14.2989 5.02903 14.1618 5.08494 14.0349C5.14071 13.9083 5.22214 13.7947 5.32406 13.7012C5.32438 13.7009 5.3247 13.7006 5.32502 13.7003L15.3226 4.61508L15.325 4.61283C15.5094 4.44418 15.7502 4.35065 16 4.35065C16.2499 4.35065 16.4907 4.44418 16.675 4.61283ZM6.00002 28V28V28Z" stroke="white" stroke-width="2"/>
</svg>
